<?xml version="1.0" standalone="no"?>
<!DOCTYPE svg PUBLIC "-//W3C//DTD SVG 20010904//EN"
 "http://www.w3.org/TR/2001/REC-SVG-20010904/DTD/svg10.dtd">
<svg version="1.0" xmlns="http://www.w3.org/2000/svg"
 width="800.000000pt" height="800.000000pt" viewBox="0 0 800.000000 800.000000"
 preserveAspectRatio="xMidYMid meet">
<metadata>
Created by potrace 1.14, written by Peter Selinger 2001-2017
</metadata>
<g transform="translate(0.000000,800.000000) scale(0.100000,-0.100000)"
fill="#000000" stroke="none">
<path d="M3366 6443 c-8 -9 14 -33 30 -33 7 0 15 4 18 9 6 10 -39 32 -48 24z"/>
<path d="M3470 6435 c0 -8 9 -15 20 -15 24 0 27 15 4 24 -22 9 -24 8 -24 -9z"/>
<path d="M3260 6432 c0 -6 14 -15 31 -21 39 -13 49 -14 49 -2 0 9 -8 12 -62
27 -10 3 -18 1 -18 -4z"/>
<path d="M3214 6405 c11 -8 29 -15 40 -15 19 1 19 2 -4 15 -35 20 -62 19 -36
0z"/>
<path d="M3566 6328 c-91 -8 -111 -18 -40 -19 64 -1 125 -7 130 -12 3 -2 -28
-7 -68 -11 -86 -7 -238 -41 -288 -63 -33 -14 -34 -15 -15 -30 67 -50 217 -106
368 -138 97 -21 126 -19 200 16 90 41 174 53 345 46 78 -4 142 -4 142 -1 0 3
-9 19 -21 35 -35 49 -238 132 -389 159 -96 17 -274 26 -364 18z m379 -68 c-3
-5 -20 -10 -36 -10 -18 0 -28 4 -24 10 3 6 20 10 36 10 18 0 28 -4 24 -10z
m50 -20 c13 -6 15 -9 5 -9 -8 0 -22 4 -30 9 -18 12 -2 12 25 0z"/>
<path d="M3408 6303 c7 -3 16 -2 19 1 4 3 -2 6 -13 5 -11 0 -14 -3 -6 -6z"/>
<path d="M4830 5799 c0 -12 67 -12 75 0 3 6 -12 10 -35 9 -22 0 -40 -4 -40 -9z"/>
<path d="M4930 5801 c0 -4 11 -6 25 -3 14 2 25 6 25 8 0 2 -11 4 -25 4 -14 0
-25 -4 -25 -9z"/>
<path d="M4510 5739 c-101 -13 -152 -28 -208 -60 -56 -32 -63 -44 -33 -54 11
-3 44 -29 73 -57 49 -47 58 -52 118 -59 195 -24 451 15 532 80 l22 18 -30 16
c-17 9 -54 37 -82 62 -49 44 -58 48 -125 56 -87 10 -180 9 -267 -2z"/>
<path d="M4952 5714 c2 -9 14 -24 28 -33 l24 -16 -24 33 c-27 36 -33 40 -28
16z"/>
<path d="M3870 5659 c0 -5 5 -7 10 -4 6 3 10 8 10 11 0 2 -4 4 -10 4 -5 0 -10
-5 -10 -11z"/>
<path d="M3524 5403 c-16 -11 -16 -17 -6 -33 7 -11 8 -20 3 -20 -5 0 1 -19 15
-43 28 -50 102 -124 130 -129 10 -2 33 -11 49 -20 17 -10 53 -29 80 -44 28
-15 72 -44 99 -65 59 -47 118 -68 141 -49 11 9 18 10 29 1 11 -9 16 0 26 49 9
42 10 68 3 83 -6 12 -7 31 -2 42 10 26 11 97 1 110 -4 6 -14 11 -22 13 -8 2
-28 10 -45 18 -16 9 -93 29 -170 45 -77 17 -166 37 -197 45 -66 17 -109 16
-134 -3z"/>
<path d="M2390 5382 c0 -12 19 -26 26 -19 2 2 -2 10 -11 17 -9 8 -15 8 -15 2z"/>
<path d="M2498 5298 c12 -12 25 -19 28 -15 4 4 -1 14 -12 22 -29 22 -41 18
-16 -7z"/>
<path d="M2395 5230 c10 -11 20 -18 23 -15 7 6 -18 35 -31 35 -5 0 -2 -9 8
-20z"/>
<path d="M2610 5230 c28 -22 40 -25 40 -10 0 11 -33 30 -52 30 -7 0 -2 -9 12
-20z"/>
<path d="M5137 5209 c-3 -11 -11 -19 -19 -19 -10 0 -9 3 2 10 10 7 -1 9 -40 4
-30 -3 -57 -7 -61 -10 -4 -2 -9 1 -11 8 -7 19 -40 0 -36 -19 2 -10 9 -17 14
-16 5 1 41 5 79 8 39 4 77 13 86 22 14 11 18 12 22 1 4 -9 6 -8 6 3 1 25 -36
31 -42 8z"/>
<path d="M4823 5179 c-5 -5 -37 -10 -71 -12 -34 -1 -62 -5 -62 -9 0 -4 -7 -5
-15 -2 -17 7 -21 -21 -5 -31 6 -3 10 -2 10 4 0 5 14 7 33 4 23 -3 39 0 49 11
12 12 18 13 21 3 4 -9 6 -8 6 2 1 9 5 10 14 3 16 -13 130 3 136 19 2 8 6 7 12
-2 7 -11 9 -10 9 3 0 13 -7 17 -30 15 -19 -1 -30 -8 -30 -17 0 -12 -2 -13 -9
-1 -10 16 -55 23 -68 10z"/>
<path d="M2495 5155 c16 -13 31 -22 34 -20 8 8 -32 45 -48 45 -11 -1 -7 -8 14
-25z"/>
<path d="M2580 5106 c0 -2 16 -13 35 -25 37 -22 47 -15 17 12 -16 15 -52 24
-52 13z"/>
<path d="M2525 3360 c-5 -8 -1 -18 10 -27 17 -12 15 -13 -18 -13 -28 0 -35 -3
-31 -15 4 -8 12 -15 20 -15 8 0 14 -9 14 -19 0 -11 15 -37 34 -58 19 -21 50
-56 69 -77 20 -21 33 -45 30 -53 -6 -15 33 -57 82 -88 59 -37 194 -105 209
-105 17 0 49 -16 76 -37 8 -6 55 -32 105 -58 49 -25 93 -53 98 -60 10 -19 80
-65 149 -98 32 -16 60 -32 63 -38 4 -5 15 -9 26 -9 11 0 22 -7 25 -15 4 -8 15
-15 27 -15 11 0 50 -13 86 -29 111 -48 145 -56 171 -38 21 14 25 14 51 -5 28
-21 71 -22 174 -2 22 4 36 0 51 -15 22 -19 22 -19 160 0 169 23 288 44 331 57
17 6 33 8 36 6 2 -2 39 5 83 15 150 38 238 53 270 47 23 -5 37 -2 49 11 18 17
245 93 343 113 45 10 56 17 77 51 27 42 32 74 13 83 -7 3 1 3 17 0 28 -4 29
-4 6 6 -13 6 -33 7 -45 4 -18 -6 -19 -5 -8 9 10 12 19 14 38 6 38 -14 82 -11
112 8 33 22 61 54 62 70 0 6 15 15 33 18 92 20 162 79 203 170 25 56 61 202
52 211 -4 3 -17 -2 -31 -11 -17 -11 -23 -22 -20 -36 3 -11 2 -19 -3 -18 -21 4
-28 -2 -14 -11 12 -8 9 -15 -17 -42 -17 -18 -35 -46 -39 -63 -9 -35 -43 -95
-54 -95 -4 0 -11 -11 -14 -25 -4 -14 -11 -23 -16 -20 -5 3 -15 -3 -22 -14 -17
-23 -158 -91 -223 -107 -16 -4 -35 -10 -40 -15 -6 -4 -42 -15 -80 -23 -39 -8
-126 -29 -195 -46 -69 -17 -150 -32 -180 -33 -30 -2 -65 -8 -77 -15 -40 -22
-397 -87 -666 -121 -124 -15 -151 -22 -168 -40 -23 -24 -74 -28 -83 -6 -4 11
-21 15 -59 15 -61 0 -73 7 -53 29 29 34 35 75 15 112 -10 18 -18 43 -19 54 0
11 -7 32 -14 48 -11 20 -12 27 -3 28 7 1 -1 4 -18 8 -54 12 -82 3 -82 -27 0
-92 -34 -137 -72 -93 -10 12 -28 21 -39 21 -11 0 -24 5 -27 11 -4 5 -17 14
-28 20 -12 5 -29 13 -37 18 -20 12 -113 46 -172 62 -27 7 -48 18 -48 23 0 5
-3 7 -6 3 -4 -3 -13 0 -21 8 -8 8 -23 15 -33 15 -29 0 -50 11 -50 26 0 8 -9
14 -20 14 -31 0 -34 1 -48 12 -7 6 -22 12 -35 13 -12 1 -25 3 -29 4 -4 0 -10
10 -13 21 -3 11 -14 20 -23 20 -9 0 -68 45 -130 98 -62 54 -145 118 -185 142
-76 45 -148 63 -162 40z"/>
</g>
</svg>
